<mxfile host="Electron" modified="2023-12-29T06:20:47.041Z" agent="Mozilla/5.0 (Windows NT 10.0; Win64; x64) AppleWebKit/537.36 (KHTML, like Gecko) draw.io/22.1.15 Chrome/120.0.6099.109 Electron/28.1.0 Safari/537.36" etag="cI-F4iW-1ueu71ONczhX" version="22.1.15" type="device">
  <diagram name="Page-1" id="MS2WF5ajch9d4Utfs9VL">
    <mxGraphModel dx="362" dy="249" grid="1" gridSize="10" guides="1" tooltips="1" connect="1" arrows="1" fold="1" page="1" pageScale="1" pageWidth="850" pageHeight="1100" math="0" shadow="0">
      <root>
        <mxCell id="0" />
        <mxCell id="1" parent="0" />
        <mxCell id="MkzHuKZQlJFVOqx_r3-p-154" value="&lt;b&gt;a &amp;amp;&amp;amp; b&lt;/b&gt;" style="rounded=0;whiteSpace=wrap;html=1;fontFamily=consolas;fillColor=#eeeeee;strokeColor=#36393d;" parent="1" vertex="1">
          <mxGeometry x="320" y="420" width="60" height="40" as="geometry" />
        </mxCell>
        <mxCell id="MkzHuKZQlJFVOqx_r3-p-140" value="true" style="rounded=0;whiteSpace=wrap;html=1;fontFamily=consolas;fontStyle=1;fillColor=#B0F9E1;strokeColor=#36393d;" parent="1" vertex="1">
          <mxGeometry x="340" y="480" width="40" height="20" as="geometry" />
        </mxCell>
        <mxCell id="MkzHuKZQlJFVOqx_r3-p-141" value="false" style="rounded=0;whiteSpace=wrap;html=1;fontFamily=consolas;fontStyle=1;fillColor=#fad9d5;strokeColor=#36393d;" parent="1" vertex="1">
          <mxGeometry x="340" y="460" width="40" height="20" as="geometry" />
        </mxCell>
        <mxCell id="MkzHuKZQlJFVOqx_r3-p-142" value="true" style="rounded=0;whiteSpace=wrap;html=1;fontFamily=consolas;fontStyle=1;fillColor=#B0F9E1;strokeColor=#36393d;" parent="1" vertex="1">
          <mxGeometry x="420" y="440" width="40" height="20" as="geometry" />
        </mxCell>
        <mxCell id="MkzHuKZQlJFVOqx_r3-p-143" value="false" style="rounded=0;whiteSpace=wrap;html=1;fontFamily=consolas;fontStyle=1;fillColor=#fad9d5;strokeColor=#36393d;" parent="1" vertex="1">
          <mxGeometry x="380" y="440" width="40" height="20" as="geometry" />
        </mxCell>
        <mxCell id="MkzHuKZQlJFVOqx_r3-p-144" value="&lt;b&gt;a&lt;/b&gt;" style="rounded=0;whiteSpace=wrap;html=1;fontFamily=consolas;fillColor=#eeeeee;strokeColor=#36393d;" parent="1" vertex="1">
          <mxGeometry x="320" y="460" width="20" height="40" as="geometry" />
        </mxCell>
        <mxCell id="MkzHuKZQlJFVOqx_r3-p-150" value="false" style="rounded=0;whiteSpace=wrap;html=1;fontFamily=consolas;fillColor=#fad9d5;strokeColor=#36393d;" parent="1" vertex="1">
          <mxGeometry x="380" y="460" width="40" height="20" as="geometry" />
        </mxCell>
        <mxCell id="MkzHuKZQlJFVOqx_r3-p-151" value="false" style="rounded=0;whiteSpace=wrap;html=1;fontFamily=consolas;fillColor=#fad9d5;strokeColor=#36393d;" parent="1" vertex="1">
          <mxGeometry x="420" y="460" width="40" height="20" as="geometry" />
        </mxCell>
        <mxCell id="MkzHuKZQlJFVOqx_r3-p-152" value="false" style="rounded=0;whiteSpace=wrap;html=1;fontFamily=consolas;fillColor=#fad9d5;strokeColor=#36393d;" parent="1" vertex="1">
          <mxGeometry x="380" y="480" width="40" height="20" as="geometry" />
        </mxCell>
        <mxCell id="MkzHuKZQlJFVOqx_r3-p-153" value="true" style="rounded=0;whiteSpace=wrap;html=1;fontFamily=consolas;fillColor=#B0F9E1;strokeColor=#36393d;" parent="1" vertex="1">
          <mxGeometry x="420" y="480" width="40" height="20" as="geometry" />
        </mxCell>
        <mxCell id="MkzHuKZQlJFVOqx_r3-p-155" value="&lt;b&gt;b&lt;/b&gt;" style="rounded=0;whiteSpace=wrap;html=1;fontFamily=consolas;fillColor=#eeeeee;strokeColor=#36393d;" parent="1" vertex="1">
          <mxGeometry x="380" y="420" width="80" height="20" as="geometry" />
        </mxCell>
        <mxCell id="MkzHuKZQlJFVOqx_r3-p-159" value="&lt;b&gt;a || b&lt;/b&gt;" style="rounded=0;whiteSpace=wrap;html=1;fontFamily=consolas;fillColor=#eeeeee;strokeColor=#36393d;" parent="1" vertex="1">
          <mxGeometry x="480" y="420" width="60" height="40" as="geometry" />
        </mxCell>
        <mxCell id="MkzHuKZQlJFVOqx_r3-p-160" value="true" style="rounded=0;whiteSpace=wrap;html=1;fontFamily=consolas;fontStyle=1;fillColor=#B0F9E1;strokeColor=#36393d;" parent="1" vertex="1">
          <mxGeometry x="500" y="480" width="40" height="20" as="geometry" />
        </mxCell>
        <mxCell id="MkzHuKZQlJFVOqx_r3-p-161" value="false" style="rounded=0;whiteSpace=wrap;html=1;fontFamily=consolas;fontStyle=1;fillColor=#fad9d5;strokeColor=#36393d;" parent="1" vertex="1">
          <mxGeometry x="500" y="460" width="40" height="20" as="geometry" />
        </mxCell>
        <mxCell id="MkzHuKZQlJFVOqx_r3-p-162" value="true" style="rounded=0;whiteSpace=wrap;html=1;fontFamily=consolas;fontStyle=1;fillColor=#B0F9E1;strokeColor=#36393d;" parent="1" vertex="1">
          <mxGeometry x="580" y="440" width="40" height="20" as="geometry" />
        </mxCell>
        <mxCell id="MkzHuKZQlJFVOqx_r3-p-163" value="false" style="rounded=0;whiteSpace=wrap;html=1;fontFamily=consolas;fontStyle=1;fillColor=#fad9d5;strokeColor=#36393d;" parent="1" vertex="1">
          <mxGeometry x="540" y="440" width="40" height="20" as="geometry" />
        </mxCell>
        <mxCell id="MkzHuKZQlJFVOqx_r3-p-164" value="&lt;b&gt;a&lt;/b&gt;" style="rounded=0;whiteSpace=wrap;html=1;fontFamily=consolas;fillColor=#eeeeee;strokeColor=#36393d;" parent="1" vertex="1">
          <mxGeometry x="480" y="460" width="20" height="40" as="geometry" />
        </mxCell>
        <mxCell id="MkzHuKZQlJFVOqx_r3-p-165" value="false" style="rounded=0;whiteSpace=wrap;html=1;fontFamily=consolas;fillColor=#fad9d5;strokeColor=#36393d;" parent="1" vertex="1">
          <mxGeometry x="540" y="460" width="40" height="20" as="geometry" />
        </mxCell>
        <mxCell id="MkzHuKZQlJFVOqx_r3-p-166" value="true" style="rounded=0;whiteSpace=wrap;html=1;fontFamily=consolas;fillColor=#B0F9E1;strokeColor=#36393d;" parent="1" vertex="1">
          <mxGeometry x="580" y="460" width="40" height="20" as="geometry" />
        </mxCell>
        <mxCell id="MkzHuKZQlJFVOqx_r3-p-167" value="true" style="rounded=0;whiteSpace=wrap;html=1;fontFamily=consolas;fillColor=#B0F9E1;strokeColor=#36393d;" parent="1" vertex="1">
          <mxGeometry x="540" y="480" width="40" height="20" as="geometry" />
        </mxCell>
        <mxCell id="MkzHuKZQlJFVOqx_r3-p-168" value="true" style="rounded=0;whiteSpace=wrap;html=1;fontFamily=consolas;fillColor=#B0F9E1;strokeColor=#36393d;" parent="1" vertex="1">
          <mxGeometry x="580" y="480" width="40" height="20" as="geometry" />
        </mxCell>
        <mxCell id="MkzHuKZQlJFVOqx_r3-p-169" value="&lt;b&gt;b&lt;/b&gt;" style="rounded=0;whiteSpace=wrap;html=1;fontFamily=consolas;fillColor=#eeeeee;strokeColor=#36393d;" parent="1" vertex="1">
          <mxGeometry x="540" y="420" width="80" height="20" as="geometry" />
        </mxCell>
        <mxCell id="MkzHuKZQlJFVOqx_r3-p-170" value="true" style="rounded=0;whiteSpace=wrap;html=1;fontFamily=consolas;fontStyle=1;fillColor=#B0F9E1;strokeColor=#36393d;" parent="1" vertex="1">
          <mxGeometry x="430" y="560" width="40" height="20" as="geometry" />
        </mxCell>
        <mxCell id="MkzHuKZQlJFVOqx_r3-p-171" value="false" style="rounded=0;whiteSpace=wrap;html=1;fontFamily=consolas;fontStyle=1;fillColor=#fad9d5;strokeColor=#36393d;" parent="1" vertex="1">
          <mxGeometry x="430" y="540" width="40" height="20" as="geometry" />
        </mxCell>
        <mxCell id="MkzHuKZQlJFVOqx_r3-p-172" value="false" style="rounded=0;whiteSpace=wrap;html=1;fontFamily=consolas;fillColor=#fad9d5;strokeColor=#36393d;" parent="1" vertex="1">
          <mxGeometry x="470" y="560" width="40" height="20" as="geometry" />
        </mxCell>
        <mxCell id="MkzHuKZQlJFVOqx_r3-p-173" value="true" style="rounded=0;whiteSpace=wrap;html=1;fontFamily=consolas;fillColor=#B0F9E1;strokeColor=#36393d;" parent="1" vertex="1">
          <mxGeometry x="470" y="540" width="40" height="20" as="geometry" />
        </mxCell>
        <mxCell id="MkzHuKZQlJFVOqx_r3-p-174" value="a" style="rounded=0;whiteSpace=wrap;html=1;fontFamily=consolas;fontStyle=1;fillColor=#eeeeee;strokeColor=#36393d;" parent="1" vertex="1">
          <mxGeometry x="430" y="520" width="40" height="20" as="geometry" />
        </mxCell>
        <mxCell id="MkzHuKZQlJFVOqx_r3-p-175" value="! a" style="rounded=0;whiteSpace=wrap;html=1;fontFamily=consolas;fontStyle=1;fillColor=#eeeeee;strokeColor=#36393d;" parent="1" vertex="1">
          <mxGeometry x="470" y="520" width="40" height="20" as="geometry" />
        </mxCell>
      </root>
    </mxGraphModel>
  </diagram>
</mxfile>
